<svg width="98" height="29" viewBox="0 0 98 29" fill="none" xmlns="http://www.w3.org/2000/svg">
<path d="M13.3555 6.20312V9.32031H15.5234V11.8047H13.3555V18.1328C13.3555 18.6016 13.4453 18.9375 13.625 19.1406C13.8047 19.3438 14.1484 19.4453 14.6562 19.4453C15.0312 19.4453 15.3633 19.418 15.6523 19.3633V21.9297C14.9883 22.1328 14.3047 22.2344 13.6016 22.2344C11.2266 22.2344 10.0156 21.0352 9.96875 18.6367V11.8047H8.11719V9.32031H9.96875V6.20312H13.3555ZM16.5312 15.543C16.5312 14.2852 16.7734 13.1641 17.2578 12.1797C17.7422 11.1953 18.4375 10.4336 19.3438 9.89453C20.2578 9.35547 21.3164 9.08594 22.5195 9.08594C24.2305 9.08594 25.625 9.60938 26.7031 10.6562C27.7891 11.7031 28.3945 13.125 28.5195 14.9219L28.543 15.7891C28.543 17.7344 28 19.2969 26.9141 20.4766C25.8281 21.6484 24.3711 22.2344 22.543 22.2344C20.7148 22.2344 19.2539 21.6484 18.1602 20.4766C17.0742 19.3047 16.5312 17.7109 16.5312 15.6953V15.543ZM19.918 15.7891C19.918 16.9922 20.1445 17.9141 20.5977 18.5547C21.0508 19.1875 21.6992 19.5039 22.543 19.5039C23.3633 19.5039 24.0039 19.1914 24.4648 18.5664C24.9258 17.9336 25.1562 16.9258 25.1562 15.543C25.1562 14.3633 24.9258 13.4492 24.4648 12.8008C24.0039 12.1523 23.3555 11.8281 22.5195 11.8281C21.6914 11.8281 21.0508 12.1523 20.5977 12.8008C20.1445 13.4414 19.918 14.4375 19.918 15.7891ZM30.1016 15.543C30.1016 14.2852 30.3438 13.1641 30.8281 12.1797C31.3125 11.1953 32.0078 10.4336 32.9141 9.89453C33.8281 9.35547 34.8867 9.08594 36.0898 9.08594C37.8008 9.08594 39.1953 9.60938 40.2734 10.6562C41.3594 11.7031 41.9648 13.125 42.0898 14.9219L42.1133 15.7891C42.1133 17.7344 41.5703 19.2969 40.4844 20.4766C39.3984 21.6484 37.9414 22.2344 36.1133 22.2344C34.2852 22.2344 32.8242 21.6484 31.7305 20.4766C30.6445 19.3047 30.1016 17.7109 30.1016 15.6953V15.543ZM33.4883 15.7891C33.4883 16.9922 33.7148 17.9141 34.168 18.5547C34.6211 19.1875 35.2695 19.5039 36.1133 19.5039C36.9336 19.5039 37.5742 19.1914 38.0352 18.5664C38.4961 17.9336 38.7266 16.9258 38.7266 15.543C38.7266 14.3633 38.4961 13.4492 38.0352 12.8008C37.5742 12.1523 36.9258 11.8281 36.0898 11.8281C35.2617 11.8281 34.6211 12.1523 34.168 12.8008C33.7148 13.4414 33.4883 14.4375 33.4883 15.7891ZM47.7734 22H44.375V4H47.7734V22ZM62 15.7773C62 17.8086 61.5664 19.3945 60.6992 20.5352C59.832 21.668 58.6211 22.2344 57.0664 22.2344C55.6914 22.2344 54.5938 21.707 53.7734 20.6523L53.6211 22H50.5742V4H53.9609V10.457C54.7422 9.54297 55.7695 9.08594 57.043 9.08594C58.5898 9.08594 59.8008 9.65625 60.6758 10.7969C61.5586 11.9297 62 13.5273 62 15.5898V15.7773ZM58.6133 15.5312C58.6133 14.25 58.4102 13.3164 58.0039 12.7305C57.5977 12.1367 56.9922 11.8398 56.1875 11.8398C55.1094 11.8398 54.3672 12.2812 53.9609 13.1641V18.168C54.375 19.0586 55.125 19.5039 56.2109 19.5039C57.3047 19.5039 58.0234 18.9648 58.3672 17.8867C58.5312 17.3711 58.6133 16.5859 58.6133 15.5312ZM63.5703 15.543C63.5703 14.2852 63.8125 13.1641 64.2969 12.1797C64.7812 11.1953 65.4766 10.4336 66.3828 9.89453C67.2969 9.35547 68.3555 9.08594 69.5586 9.08594C71.2695 9.08594 72.6641 9.60938 73.7422 10.6562C74.8281 11.7031 75.4336 13.125 75.5586 14.9219L75.582 15.7891C75.582 17.7344 75.0391 19.2969 73.9531 20.4766C72.8672 21.6484 71.4102 22.2344 69.582 22.2344C67.7539 22.2344 66.293 21.6484 65.1992 20.4766C64.1133 19.3047 63.5703 17.7109 63.5703 15.6953V15.543ZM66.957 15.7891C66.957 16.9922 67.1836 17.9141 67.6367 18.5547C68.0898 19.1875 68.7383 19.5039 69.582 19.5039C70.4023 19.5039 71.043 19.1914 71.5039 18.5664C71.9648 17.9336 72.1953 16.9258 72.1953 15.543C72.1953 14.3633 71.9648 13.4492 71.5039 12.8008C71.043 12.1523 70.3945 11.8281 69.5586 11.8281C68.7305 11.8281 68.0898 12.1523 67.6367 12.8008C67.1836 13.4414 66.957 14.4375 66.957 15.7891ZM82.2383 13.1055L84.3711 9.32031H87.9922L84.3828 15.5312L88.1445 22H84.5117L82.25 18.0156L80 22H76.3555L80.1172 15.5312L76.5195 9.32031H80.1523L82.2383 13.1055Z" fill="#253858"/>
<path d="M7.40625 26.2891C6.02344 25.8984 4.98047 25.2539 4.27734 24.3555C3.58203 23.4648 3.23438 22.2852 3.23438 20.8164V18.4844C3.23438 16.5859 2.40625 15.6367 0.75 15.6367V13.9375C2.40625 13.9375 3.23438 12.9922 3.23438 11.1016V8.66406C3.25 7.23438 3.59766 6.08203 4.27734 5.20703C4.96484 4.32422 6.00781 3.68359 7.40625 3.28516L7.85156 4.63281C6.21875 5.15625 5.40234 6.51953 5.40234 8.72266V11.0898C5.40234 12.8633 4.75 14.0977 3.44531 14.793C4.75 15.4961 5.40234 16.7422 5.40234 18.5312V20.9453C5.42578 23.0938 6.24219 24.4258 7.85156 24.9414L7.40625 26.2891Z" fill="#253858"/>
<path d="M89.2227 24.9414C90.8086 24.4336 91.6289 23.1406 91.6836 21.0625V18.4844C91.6836 16.6797 92.3906 15.4492 93.8047 14.793C92.3906 14.1523 91.6836 12.9219 91.6836 11.1016V8.72266C91.6836 6.51953 90.8672 5.15625 89.2344 4.63281L89.6797 3.28516C91.0625 3.67578 92.1016 4.3125 92.7969 5.19531C93.4922 6.07031 93.8438 7.23047 93.8516 8.67578V11.1367C93.8516 13.0039 94.6797 13.9375 96.3359 13.9375V15.6367C94.6797 15.6367 93.8516 16.5859 93.8516 18.4844V20.8516C93.8516 22.3203 93.4961 23.4961 92.7852 24.3789C92.082 25.2617 91.0469 25.8984 89.6797 26.2891L89.2227 24.9414Z" fill="#253858"/>
</svg>
